# xmcd CD database file
#
# Track frame offsets:
#	150
#	18889
#	36515
#	59647
#	79172
#	98640
#	118741
#	130613
#	152575
#	172582
#	184658
#	203219
#	216132
#	236252
#	254588
#	268947
#	283635
#	301197
#
# Disc length: 4270 seconds
#
# Revision: 0
# Processed by: cddbd v1.5.2PL0 Copyright (c) Steve Scherf et al.
# Submitted via: CDex 1.51
#
DISCID=f410ac12
DTITLE=Bo Kaspers Orkester - Nittiotre Nittioatta
DYEAR=1900
DGENRE=Jazz
TTITLE0=ett and noll
TTITLE1=hon ar sa sot
TTITLE2=ingenting alls
TTITLE3=undantag
TTITLE4=kopenhamn
TTITLE5=amerika
TTITLE6=det gar en man omkring i mina skor
TTITLE7=en varldsomsegling under havet
TTITLE8=puss
TTITLE9=fyrarattersmal
TTITLE10=kyss mej
TTITLE11=cigarett
TTITLE12=vi kommer aldrig att do
TTITLE13=vissa har det
TTITLE14=hel
TTITLE15=sondag i sangen
TTITLE16=i botten pa glaset
TTITLE17=allt ljus pa mej
EXTD=
EXTT0=
EXTT1=
EXTT2=
EXTT3=
EXTT4=
EXTT5=
EXTT6=
EXTT7=
EXTT8=
EXTT9=
EXTT10=
EXTT11=
EXTT12=
EXTT13=
EXTT14=
EXTT15=
EXTT16=
EXTT17=
PLAYORDER=
